<?xml version="1.0" standalone="no"?><!DOCTYPE svg PUBLIC "-//W3C//DTD SVG 1.1//EN" "http://www.w3.org/Graphics/SVG/1.1/DTD/svg11.dtd"><svg t="1623854739560" class="icon" viewBox="0 0 1194 1024" version="1.1" xmlns="http://www.w3.org/2000/svg" p-id="18690" xmlns:xlink="http://www.w3.org/1999/xlink" width="233.203125" height="200"><defs><style type="text/css"></style></defs><path d="M861.41531188 521.90112781a34.23825469 34.23825469 0 1 0 0-68.15775937h-84.79642125L870.69463719 343.98801781a33.91856813 33.91856813 0 0 0-4.159665-47.99880562 35.19824906 35.19824906 0 0 0-48.95786344 4.1606025L706.54114062 428.14413031 595.82579562 300.14981469a35.19824906 35.19824906 0 0 0-48.95786343-4.1606025 33.91856813 33.91856813 0 0 0-2.55936094 47.99880562L638.38338031 453.74336844h-89.59639594a34.23825469 34.23825469 0 1 0 0 68.15775937h122.87465532v51.83784844H547.18761781a33.91856813 33.91856813 0 1 0 0 67.83713625H669.7425875v92.47638a34.55887781 34.55887781 0 0 0 34.55887781 33.91856906 34.23825469 34.23825469 0 0 0 34.55887688-33.91856906v-92.47638H861.09468875a34.23825469 34.23825469 0 1 0 0-68.15776031H739.18002875v-51.51722438z" p-id="18691"></path><path d="M1073.24699094 32H67.20612406A34.87856344 34.87856344 0 0 0 36.80784969 49.91927938a35.19824906 35.19824906 0 0 0 0 35.51887218l81.59675062 129.91430438L37.44815844 345.26769875a36.15918188 36.15918188 0 0 0 0 36.79855312l80.95644187 129.91524188L37.44815844 641.89579906a36.15918188 36.15918188 0 0 0 0 36.79855219l80.95644187 129.91524281L37.44815844 938.52389844a35.19824906 35.19824906 0 0 0 0 35.51887312 34.87856344 34.87856344 0 0 0 31.99857937 17.91927844h1003.80025313a79.35707531 79.35707531 0 0 0 79.03645125-79.03645219V111.03645219A79.35707531 79.35707531 0 0 0 1073.24699094 32z m9.27932531 880.92559781a9.27932531 9.27932531 0 0 1-9.27932531 9.27932531H349.11555312v-35.19824906a34.87856344 34.87856344 0 1 0-69.75712687 0v35.19824906H129.92360094l59.19718312-95.99573625a35.19824906 35.19824906 0 0 0 0-37.11917625L108.16528063 660.45538719l80.95644093-129.91524281a35.19824906 35.19824906 0 0 0 0-37.11823876L108.16528063 363.50666375l80.95644093-127.99431562a35.19824906 35.19824906 0 0 0 0-37.11917625L129.92453844 102.39743563h149.43388781v35.19824906a34.87856344 34.87856344 0 0 0 69.75712687 0V101.75712687h724.13143782a9.27932531 9.27932531 0 0 1 9.27932531 9.27932532V912.92653531z" p-id="18692"></path><path d="M352.31616125 583.33798719a31.99857844 31.99857844 0 0 0-31.99951594 34.55887781v147.83358375a31.99857844 31.99857844 0 1 0 63.99715688 0V617.896865a31.99857844 31.99857844 0 0 0-31.99857844-34.55887781z m0-295.34841938a31.99857844 31.99857844 0 0 0-31.99951594 34.23919125v147.83358375a31.99857844 31.99857844 0 1 0 63.99715688 0V322.22969656a31.99857844 31.99857844 0 0 0-31.99857844-34.23919125z" p-id="18693"></path></svg>