<?xml version="1.0" standalone="no"?><!DOCTYPE svg PUBLIC "-//W3C//DTD SVG 1.1//EN" "http://www.w3.org/Graphics/SVG/1.1/DTD/svg11.dtd"><svg t="1623921938062" class="icon" viewBox="0 0 1024 1024" version="1.1" xmlns="http://www.w3.org/2000/svg" p-id="63793" xmlns:xlink="http://www.w3.org/1999/xlink" width="200" height="200"><defs><style type="text/css"></style></defs><path d="M647.8848 294.2976c-8.4992 0-15.36-6.8608-15.36-15.36 0-65.6384-53.76-118.9888-119.7056-118.9888-66.048 0-119.7056 53.3504-119.7056 118.9888 0 8.4992-6.8608 15.36-15.36 15.36s-15.36-6.8608-15.36-15.36c0-82.5344 67.4816-149.7088 150.4256-149.7088s150.4256 67.1744 150.4256 149.7088c0 8.4992-6.8608 15.36-15.36 15.36z" fill="#8199A0" p-id="63794"></path><path d="M512.7168 439.808c-8.4992 0-15.36-6.8608-15.36-15.36 0-65.6384-53.76-118.9888-119.7056-118.9888s-119.7056 53.3504-119.7056 118.9888c0 8.4992-6.8608 15.36-15.36 15.36s-15.36-6.8608-15.36-15.36c0-82.5344 67.4816-149.7088 150.4256-149.7088s150.4256 67.1744 150.4256 149.7088c0.1024 8.4992-6.8608 15.36-15.36 15.36z" fill="#8199A0" p-id="63795"></path><path d="M782.9504 439.808c-8.4992 0-15.36-6.8608-15.36-15.36 0-65.6384-53.76-118.9888-119.7056-118.9888s-119.7056 53.3504-119.7056 118.9888c0 8.4992-6.8608 15.36-15.36 15.36s-15.36-6.8608-15.36-15.36c0-82.5344 67.4816-149.7088 150.4256-149.7088s150.4256 67.1744 150.4256 149.7088c0 8.4992-6.8608 15.36-15.36 15.36z" fill="#8199A0" p-id="63796"></path><path d="M512.7168 757.1456c-162.304 0-299.7248-115.4048-326.8608-274.3296-2.9696-17.5104 1.9456-35.328 13.4144-48.9472a61.70624 61.70624 0 0 1 47.2064-21.9136h532.48c18.2272 0 35.4304 7.9872 47.104 21.9136a60.22144 60.22144 0 0 1 13.4144 48.9472c-26.9312 158.9248-164.4544 274.3296-326.7584 274.3296zM246.5792 442.6752c-9.1136 0-17.8176 3.9936-23.6544 10.9568-5.7344 6.8608-8.0896 15.36-6.656 23.9616 24.576 144.1792 149.2992 248.7296 296.5504 248.7296s271.9744-104.6528 296.5504-248.7296c1.4336-8.6016-0.9216-17.2032-6.656-23.9616a31.0272 31.0272 0 0 0-23.6544-10.9568h-532.48z" fill="#8199A0" p-id="63797"></path><path d="M512.7168 821.9648c-8.4992 0-15.36-6.8608-15.36-15.36v-64.8192c0-8.4992 6.8608-15.36 15.36-15.36s15.36 6.8608 15.36 15.36v64.8192c0 8.3968-6.8608 15.36-15.36 15.36z" fill="#8199A0" p-id="63798"></path><path d="M576.4096 897.1264H449.1264c-27.4432 0-49.7664-22.3232-49.7664-49.7664v-6.3488c0-27.4432 22.3232-49.7664 49.7664-49.7664h127.1808c27.4432 0 49.7664 22.3232 49.7664 49.7664v6.3488a49.664 49.664 0 0 1-49.664 49.7664z m-127.2832-75.1616c-10.5472 0-19.0464 8.6016-19.0464 19.0464v6.3488c0 10.5472 8.6016 19.0464 19.0464 19.0464h127.1808c10.5472 0 19.0464-8.6016 19.0464-19.0464v-6.3488c0-10.5472-8.6016-19.0464-19.0464-19.0464H449.1264zM371.2 303.0016c-3.3792 0-6.8608-1.1264-9.728-3.4816L197.12 165.1712c-6.5536-5.3248-7.5776-15.0528-2.1504-21.6064 5.3248-6.5536 15.0528-7.5776 21.6064-2.1504L380.928 275.7632c6.5536 5.3248 7.5776 15.0528 2.1504 21.6064-2.9696 3.6864-7.4752 5.632-11.8784 5.632zM698.88 297.7792c-12.5952 0-24.8832-2.56-35.328-6.7584-3.3792-1.3312-6.2464-3.8912-7.8848-7.168-17.3056-33.4848-12.0832-74.0352 12.5952-98.6112 26.112-25.9072 65.1264-26.5216 92.2624-15.5648 3.3792 1.3312 6.2464 3.8912 7.8848 7.168 17.3056 33.4848 12.0832 74.0352-12.5952 98.6112-15.9744 15.9744-36.864 22.3232-56.9344 22.3232z m-18.3296-33.3824c16.896 4.9152 39.2192 3.584 53.6576-10.752 15.4624-15.36 16.384-39.424 9.3184-57.4464-16.896-4.9152-39.2192-3.584-53.6576 10.752-15.4624 15.4624-16.384 39.424-9.3184 57.4464z m-1.4336-68.3008z" fill="#8199A0" p-id="63799"></path><path d="M514.2528 757.1456c-79.1552 0-141.1072-95.4368-141.1072-217.2928 0-45.4656 9.0112-76.288 22.528-108.544a15.36 15.36 0 0 1 20.0704-8.192 15.36 15.36 0 0 1 8.192 20.0704c-12.3904 29.696-20.1728 56.2176-20.1728 96.6656 0 101.1712 50.5856 186.5728 110.3872 186.5728 59.904 0 110.3872-85.4016 110.3872-186.5728 0-40.5504-8.0896-68.1984-20.2752-97.0752a15.31904 15.31904 0 1 1 28.2624-11.8784C646.3488 463.1552 655.36 494.08 655.36 539.8528c0 121.856-61.952 217.2928-141.1072 217.2928z" fill="#8199A0" p-id="63800"></path></svg>