<?xml version="1.0" standalone="no"?><!DOCTYPE svg PUBLIC "-//W3C//DTD SVG 1.1//EN" "http://www.w3.org/Graphics/SVG/1.1/DTD/svg11.dtd"><svg t="1623943029910" class="icon" viewBox="0 0 1024 1024" version="1.1" xmlns="http://www.w3.org/2000/svg" p-id="91372" xmlns:xlink="http://www.w3.org/1999/xlink" width="200" height="200"><defs><style type="text/css"></style></defs><path d="M517.30760691 300.99026173c-103.04524642 0-186.93132642 83.88608-186.93132641 186.93132642V508.11638518h373.86265283v-20.19479703c0-103.04524642-83.88608-186.93132642-186.93132642-186.93132642z m-144.98828641 166.60707555a146.41227852 146.41227852 0 0 1 289.97657283 0z m475.2249995-54.37060741l-7.1199605-4.66033777-0.25890765 0.25890765c-30.29219555-53.8527921-77.28393482-98.77327013-128.6771042-132.43126518-58.77203753-38.44778667-125.95857383-58.77203753-194.18074074-58.77203754-142.01084839 0-265.25089185 68.86943605-325.83528296 187.70804939l-3.75416098 3.23634568-7.24941433 4.66033777a302.92195555 302.92195555 0 0 0-140.84576395 256.57748544 319.10368395 319.10368395 0 0 0 4.01306864 50.09863111l2.45962272 15.14609777h150.81370864a100.84453136 100.84453136 0 0 0 193.53347161-0.38836147h252.56441679a100.84453136 100.84453136 0 0 0 193.5334716 0.38836147H981.91739259l2.71853038-16.95845136a297.09653333 297.09653333 0 0 0 3.88361481-48.41573135 302.6630479 302.6630479 0 0 0-140.97521778-256.44803161zM293.61139358 766.76513185a60.45493728 60.45493728 0 1 1 60.32548345-60.45493728 60.58439111 60.58439111 0 0 1-60.32548345 60.45493728z m446.22734223 0a60.45493728 60.45493728 0 1 1 60.32548344-60.45493728 60.45493728 60.45493728 0 0 1-60.32548344 60.45493728z m206.99666962-72.10578172h-106.7994074a100.84453136 100.84453136 0 0 0-200.26507062-0.51781531H393.67920197a100.84453136 100.84453136 0 0 0-200.26507061 0.51781531h-112.10701433a248.42189431 248.42189431 0 0 1-1.16508444-24.85513482 262.66181531 262.66181531 0 0 1 115.08445235-217.87079112l14.7577363-11.90975209 11.65084445-15.01664395c76.37775803-102.00961581 163.75909136-166.8659832 295.67254122-166.86598321 60.32548347 0 119.87424395 17.99408197 171.91468248 52.16989234 49.96917728 32.62236445 73.27086617 60.19602963 114.95499851 115.86117531l13.98101334 15.01664394 14.62828246 10.74466766a262.66181531 262.66181531 0 0 1 115.21390617 217.87079112q0 12.42756741-1.16508444 24.85513482z m0 0" fill="#888888" p-id="91373"></path></svg>