<?xml version="1.0" standalone="no"?><!DOCTYPE svg PUBLIC "-//W3C//DTD SVG 1.1//EN" "http://www.w3.org/Graphics/SVG/1.1/DTD/svg11.dtd"><svg t="1623942337483" class="icon" viewBox="0 0 1024 1024" version="1.1" xmlns="http://www.w3.org/2000/svg" p-id="78188" xmlns:xlink="http://www.w3.org/1999/xlink" width="200" height="200"><defs><style type="text/css"></style></defs><path d="M591.36 130.56c-104.96 0-202.24 40.96-273.92 117.76-10.24 10.24-10.24 25.6 0 35.84 10.24 10.24 25.6 10.24 35.84 0 64-66.56 148.48-102.4 238.08-102.4 181.76 0 330.24 148.48 330.24 330.24s-148.48 330.24-330.24 330.24c-76.8 0-151.04-28.16-209.92-76.8h209.92c140.8 0 256-115.2 256-256s-115.2-256-256-256c-15.36 0-25.6 10.24-25.6 25.6s10.24 25.6 25.6 25.6c112.64 0 204.8 92.16 204.8 204.8s-92.16 204.8-204.8 204.8h-512c-12.8 0-25.6 10.24-25.6 25.6 0 12.8 12.8 25.6 25.6 25.6h230.4c71.68 81.92 174.08 128 284.16 128 209.92 0 381.44-171.52 381.44-381.44s-174.08-381.44-384-381.44z" p-id="78189"></path><path d="M345.6 622.08c-15.36 0-30.72-2.56-43.52-7.68-12.8-5.12-25.6-12.8-33.28-23.04-10.24-10.24-17.92-20.48-23.04-35.84s-7.68-30.72-7.68-48.64 2.56-33.28 7.68-48.64c5.12-12.8 12.8-25.6 20.48-35.84 7.68-10.24 20.48-17.92 30.72-23.04 12.8-5.12 25.6-7.68 38.4-7.68 10.24 0 20.48 2.56 28.16 5.12 7.68 2.56 15.36 5.12 23.04 10.24 5.12 2.56 10.24 7.68 15.36 12.8 2.56 5.12 5.12 7.68 5.12 10.24v7.68c0 2.56-2.56 2.56-2.56 5.12l-2.56 2.56s-2.56 2.56-5.12 2.56c-2.56 2.56-7.68 2.56-10.24 0s-7.68-5.12-12.8-7.68l-15.36-7.68c-5.12-2.56-12.8-5.12-20.48-5.12-10.24 0-17.92 2.56-25.6 7.68-7.68 5.12-12.8 10.24-17.92 17.92-5.12 7.68-7.68 15.36-10.24 25.6-2.56 10.24-5.12 17.92-5.12 28.16 0 10.24 2.56 20.48 5.12 28.16 2.56 10.24 7.68 17.92 12.8 25.6 5.12 7.68 12.8 12.8 20.48 17.92s17.92 7.68 28.16 5.12c5.12 0 10.24 0 15.36-2.56s7.68-2.56 10.24-5.12c2.56-2.56 5.12-2.56 7.68-5.12s5.12-5.12 7.68-5.12c5.12-2.56 10.24-5.12 15.36-2.56 5.12 2.56 7.68 5.12 10.24 7.68s2.56 7.68 2.56 10.24c0 2.56-2.56 5.12-5.12 10.24s-7.68 7.68-12.8 12.8-12.8 7.68-20.48 10.24c-10.24 5.12-20.48 7.68-30.72 7.68zM529.92 437.76v166.4c0 5.12-2.56 7.68-5.12 10.24s-7.68 5.12-15.36 5.12-12.8-2.56-15.36-5.12c-2.56-2.56-5.12-7.68-5.12-10.24v-166.4h-38.4c-2.56 0-7.68-2.56-10.24-5.12-2.56-2.56-5.12-7.68-5.12-12.8s2.56-10.24 5.12-12.8 7.68-5.12 10.24-5.12h117.76c5.12 0 7.68 2.56 10.24 5.12s5.12 7.68 5.12 12.8c0 7.68-2.56 10.24-5.12 12.8-2.56 2.56-7.68 5.12-10.24 5.12h-38.4z" p-id="78190"></path></svg>