<?xml version="1.0" standalone="no"?><!DOCTYPE svg PUBLIC "-//W3C//DTD SVG 1.1//EN" "http://www.w3.org/Graphics/SVG/1.1/DTD/svg11.dtd"><svg t="1623941626549" class="icon" viewBox="0 0 1024 1024" version="1.1" xmlns="http://www.w3.org/2000/svg" p-id="58868" xmlns:xlink="http://www.w3.org/1999/xlink" width="200" height="200"><defs><style type="text/css"></style></defs><path d="M809.9 114h-382V83c0-5.5-4.5-10-10-10h-62.7c-5.5 0-10 4.5-10 10v31H214.1c-5.5 0-10 4.5-10 10s4.5 10 10 10h131.1v74.4c0 0.5 0 0.9 0.1 1.4-24.5 7-46.9 20.1-65.5 38.7-28.6 28.6-44.4 66.5-44.4 106.7v219.5c0 40.2 15.8 78.1 44.4 106.7 18.5 18.5 41 31.7 65.4 38.6v89.8c0 5.5 4.5 10 10 10h29.2v5.7c0 0.7 0.1 1.5 0.2 2.1 1.9 33 15 65.5 36.7 90.1 24.5 28 56.7 43.3 90.7 43.3 70.4 0 127.6-60.8 127.6-135.4V449.3c0-5.5-4.5-10-10-10s-10 4.5-10 10v376.3c0 63.6-48.3 115.4-107.6 115.4-58.2 0-107.4-55.4-107.6-121.1h13.5c5.5 0 10-4.5 10-10v-89.8c24.4-7 46.8-20.1 65.4-38.6 28.6-28.6 44.4-66.5 44.4-106.7V355.2c0-40.2-15.8-78.1-44.4-106.7-18.6-18.6-41-31.7-65.5-38.7 0.1-0.5 0.1-0.9 0.1-1.4V134h372v742.6c0 5.5 4.5 10 10 10s10-4.5 10-10V124c0-5.5-4.5-10-10-10zM365.2 93h42.7v21h-42.7V93z m42.7 632.8v74.1h-42.7v-74.1h42.7z m-21.3-20c-72.3 0-131.1-58.8-131.1-131.1v-84.1h262.2v84.1c0 72.3-58.8 131.1-131.1 131.1z m131.1-350.6v115.4H255.4V355.2c0-72.3 58.8-131.1 131.1-131.1 72.4 0 131.2 58.8 131.2 131.1zM407.9 198.4h-42.7V134h42.7v64.4z" p-id="58869"></path></svg>