<?xml version="1.0" standalone="no"?><!DOCTYPE svg PUBLIC "-//W3C//DTD SVG 1.1//EN" "http://www.w3.org/Graphics/SVG/1.1/DTD/svg11.dtd"><svg t="1623817456711" class="icon" viewBox="0 0 1024 1024" version="1.1" xmlns="http://www.w3.org/2000/svg" p-id="6148" xmlns:xlink="http://www.w3.org/1999/xlink" width="200" height="200"><defs><style type="text/css"></style></defs><path d="M512 380.965926c34.986667 0 67.982222 13.653333 92.728889 38.4 24.746667 24.746667 38.4 57.647407 38.4 92.634074s-13.653333 67.887407-38.4 92.634074c-24.746667 24.746667-57.742222 38.4-92.728889 38.4s-67.982222-13.653333-92.728889-38.4c-24.746667-24.746667-38.4-57.647407-38.4-92.634074s13.653333-67.887407 38.4-92.634074c24.746667-24.746667 57.742222-38.4 92.728889-38.4m0-42.666667c-95.952593 0-173.795556 77.748148-173.795556 173.700741 0 95.952593 77.842963 173.700741 173.795556 173.700741s173.795556-77.748148 173.795556-173.700741c0-95.952593-77.842963-173.700741-173.795556-173.700741z" p-id="6149"></path><path d="M512 938.666667c-47.786667 0-94.625185-7.86963-139.472593-23.324445-10.903704-3.792593-16.782222-15.454815-13.463703-26.453333 7.86963-25.78963-2.939259-53.191111-26.358519-66.74963-23.324444-13.463704-52.527407-9.197037-70.921481 10.524445-7.86963 8.343704-20.859259 9.102222-29.582223 1.517037-35.65037-30.90963-65.706667-67.128889-89.41037-107.804445-24.177778-41.528889-41.054815-86.471111-50.157037-133.594074-2.180741-11.282963 4.93037-22.281481 16.118519-24.841481 26.263704-6.068148 44.657778-29.108148 44.657777-56.130371 0-27.022222-18.394074-50.062222-44.657777-56.13037-11.188148-2.56-18.299259-13.558519-16.118519-24.841481 9.007407-47.122963 25.884444-92.065185 50.157037-133.594075 23.703704-40.675556 53.76-76.894815 89.41037-107.804444 8.628148-7.49037 21.712593-6.826667 29.582223 1.517037 18.394074 19.721481 47.597037 23.988148 70.921481 10.524444 23.419259-13.463704 34.228148-40.96 26.358519-66.749629-3.318519-10.998519 2.56-22.660741 13.463703-26.453333C417.374815 93.202963 464.213333 85.333333 512 85.333333s94.625185 7.86963 139.472593 23.324445c10.903704 3.792593 16.782222 15.454815 13.463703 26.453333-7.86963 25.78963 2.939259 53.191111 26.358519 66.74963 23.324444 13.463704 52.527407 9.197037 70.921481-10.524445 7.86963-8.343704 20.859259-9.102222 29.582223-1.517037 35.65037 30.90963 65.706667 67.128889 89.41037 107.804445 24.177778 41.528889 41.054815 86.471111 50.157037 133.594074 2.180741 11.282963-4.93037 22.281481-16.118519 24.841481-26.263704 6.068148-44.657778 29.108148-44.657777 56.130371 0 27.022222 18.394074 50.062222 44.657777 56.13037 11.188148 2.56 18.299259 13.558519 16.118519 24.841481-9.007407 47.122963-25.884444 92.065185-50.157037 133.594075-23.703704 40.675556-53.76 76.894815-89.41037 107.804444-8.628148 7.49037-21.712593 6.826667-29.582223-1.517037-18.394074-19.721481-47.597037-23.988148-70.921481-10.524444-23.419259 13.463704-34.228148 40.96-26.358519 66.749629 3.318519 10.998519-2.56 22.660741-13.463703 26.453333C606.625185 930.797037 559.786667 938.666667 512 938.666667z m-108.088889-58.026667c34.986667 10.24 71.205926 15.36 108.088889 15.36s73.102222-5.214815 108.088889-15.36c-1.232593-15.075556 0.853333-30.435556 6.352592-44.657778 8.248889-21.238519 23.608889-39.253333 43.425186-50.631111 19.721481-11.377778 43.045926-15.739259 65.517037-12.231111 15.075556 2.37037 29.392593 8.154074 41.908148 16.782222 53.096296-50.725926 90.927407-116.053333 108.183704-187.069629-13.653333-6.447407-25.884444-16.023704-35.460741-27.875556-14.411852-17.825185-22.281481-40.106667-22.281482-62.957037 0-22.85037 7.86963-45.131852 22.186667-62.862222 9.576296-11.851852 21.807407-21.428148 35.460741-27.875556-17.256296-70.921481-54.992593-136.343704-108.183704-187.069629-12.420741 8.628148-26.832593 14.411852-41.908148 16.782222-22.471111 3.508148-45.795556-0.853333-65.517037-12.231111-19.721481-11.377778-35.176296-29.392593-43.425185-50.631111-5.499259-14.222222-7.68-29.582222-6.352593-44.657778-34.986667-10.24-71.205926-15.36-108.088889-15.36s-73.102222 5.214815-108.088889 15.36c1.232593 15.075556-0.853333 30.435556-6.352592 44.657778-8.248889 21.238519-23.608889 39.253333-43.425185 50.631111-19.721481 11.377778-43.045926 15.739259-65.517038 12.231111-15.075556-2.37037-29.392593-8.154074-41.908148-16.782222-53.096296 50.725926-90.927407 116.053333-108.183703 187.069629 13.653333 6.447407 25.884444 16.023704 35.46074 27.875556 14.317037 17.73037 22.186667 40.106667 22.186667 62.862222 0 22.85037-7.86963 45.131852-22.186667 62.862222-9.576296 11.851852-21.807407 21.428148-35.46074 27.875556 17.256296 70.921481 54.992593 136.343704 108.183703 187.069629 12.420741-8.628148 26.832593-14.411852 41.908148-16.782222 22.471111-3.508148 45.795556 0.853333 65.517038 12.231111 19.721481 11.377778 35.176296 29.392593 43.425185 50.631111 5.594074 14.317037 7.68 29.582222 6.447407 44.752593z" p-id="6150"></path></svg>