<?xml version="1.0" standalone="no"?><!DOCTYPE svg PUBLIC "-//W3C//DTD SVG 1.1//EN" "http://www.w3.org/Graphics/SVG/1.1/DTD/svg11.dtd"><svg t="1623943260202" class="icon" viewBox="0 0 1024 1024" version="1.1" xmlns="http://www.w3.org/2000/svg" p-id="94185" xmlns:xlink="http://www.w3.org/1999/xlink" width="200" height="200"><defs><style type="text/css"></style></defs><path d="M429.447 915.58c-105.139 0-306.916-16.334-349.13-39.363a25.02 25.02 0 0 1-12.43-16.457C57.65 814.475 62.79 716.07 155.51 667.776c70.57-36.757 114.42-40.336 146.442-42.951 35.798-2.92 55.519-4.529 99.034-52.13 25.287-27.664 54.363-60.348 85.144-94.948 102.622-115.36 230.335-258.924 320.27-330.87a25.07 25.07 0 0 1 20.405-5.027c56.605 10.984 156.147 77.034 127.719 248.397-10.249 61.748-24.084 98.072-36.293 130.124-10.926 28.69-19.561 51.353-23.21 86.323-11.94 114.522-6.648 274.222-6.594 275.82a25.042 25.042 0 0 1-24.473 25.884l-89.348 1.953c-6.551 0.021-13.462-2.424-18.276-7.132-4.81-4.711-7.748-11.158-7.748-17.892V535.083c0 2.808-15.199 8.585-28.6 20.468-39.605 35.12-88.466 129.305-127.82 204.986-55.353 106.44-77.089 144.318-104.276 151.413-9.51 2.478-30.556 3.63-58.44 3.63z m-314.42-79.09c65.924 20.272 319.774 34.93 358.542 27.407 14.403-11.294 48.93-77.695 74.29-126.458 43.406-83.472 92.6-178.081 139.135-219.346 31.287-27.744 57.466-39.153 80.004-34.854 15.326 2.915 25.041 12.701 29.197 20.89 1.784 3.51 2.528 7.391 2.528 11.33v344.28l38.83-0.842c-1.038-50.474-1.943-166.001 7.584-257.4 4.327-41.48 15.006-69.395 26.269-98.948 11.372-29.855 24.283-63.695 33.706-120.499 22.922-138.15-49.273-177.917-77.34-188.002-86.14 71.79-206.667 207.286-304.24 316.972-30.897 34.732-60.08 67.538-85.6 95.45-56.783 62.12-91.595 64.96-131.91 68.25-30.836 2.517-65.782 5.368-127.388 37.457-64.182 33.427-65.972 97.522-63.607 124.312z" p-id="94186"></path></svg>