<?xml version="1.0" standalone="no"?><!DOCTYPE svg PUBLIC "-//W3C//DTD SVG 1.1//EN" "http://www.w3.org/Graphics/SVG/1.1/DTD/svg11.dtd"><svg t="1623942973274" class="icon" viewBox="0 0 1024 1024" version="1.1" xmlns="http://www.w3.org/2000/svg" p-id="91103" xmlns:xlink="http://www.w3.org/1999/xlink" width="200" height="200"><defs><style type="text/css"></style></defs><path d="M722.916 106.667c82.48 0 151.127 62.616 159.212 144.128l0.433 5.229 25.6 384c5.237 78.544-47.132 147.622-120.96 165.923l68.72 68.72-45.254 45.255-109.242-109.255H322.567L213.333 919.922l-45.255-45.255 68.713-68.71c-69.671-17.304-121.307-80.267-121.307-155.29l0.089-5.325 0.266-5.318 25.6-384c5.486-82.297 72.53-146.628 154.4-149.273l5.245-0.084h421.832zM835.484 512H188.487l-8.883 133.876-0.12 4.79c0 51.505 40.56 93.536 91.481 95.896l4.52 0.105h473.03a96 96 0 0 0 6.387-0.213c51.39-3.426 90.63-46.692 89.598-97.657l-0.197-4.516L835.484 512z m-494.15 64C364.896 576 384 595.103 384 618.667s-19.103 42.666-42.667 42.666-42.666-19.102-42.666-42.666c0-23.564 19.102-42.667 42.666-42.667z m341.333 0c23.564 0 42.666 19.103 42.666 42.667s-19.102 42.666-42.666 42.666c-23.564 0-42.667-19.102-42.667-42.666C640 595.103 659.103 576 682.667 576z m40.249-405.333H301.084c-49.009 0-89.879 36.846-95.376 85.061l-0.411 4.553L192.753 448h638.464l-12.514-187.72c-3.26-48.9-42.743-87.228-91.217-89.506l-4.57-0.107z" p-id="91104"></path></svg>