<?xml version="1.0" standalone="no"?><!DOCTYPE svg PUBLIC "-//W3C//DTD SVG 1.1//EN" "http://www.w3.org/Graphics/SVG/1.1/DTD/svg11.dtd"><svg t="1623921856230" class="icon" viewBox="0 0 1024 1024" version="1.1" xmlns="http://www.w3.org/2000/svg" p-id="61505" xmlns:xlink="http://www.w3.org/1999/xlink" width="200" height="200"><defs><style type="text/css"></style></defs><path d="M465.17248 867.53792c-9.10336 0-17.1008-3.21536-23.13728-9.28768-10.23488-10.30144-10.65472-24.77568-10.63936-27.5712v-126.6944c-102.4512-55.7568-134.64576-94.07488-156.15488-119.66976-8.5504-10.18368-14.73024-17.54112-22.88128-22.84032-2.83136-1.83808-4.79744-2.07872-6.19008-2.07872-12.91264 0-34.8672 22.656-56.0896 44.56448-12.71808 13.12256-27.13088 28.00128-43.06944 42.08128-27.22816 24.00256-49.2544 35.67104-67.34848 35.67104-10.34752 0-19.26144-3.77856-25.77408-10.9312-8.18176-8.98048-11.68384-22.53824-10.13248-39.22432 2.24256-24.52992 21.23776-70.28736 36.80256-104.39168 4.352-9.92256 4.11648-16.88064 2.98496-21.1712-16.96256-36.75136-37.39648-85.36064-39.7824-110.84288-1.55136-16.70656 1.95072-30.27456 10.12736-39.24992 6.50752-7.14752 15.41632-10.92096 25.75872-10.92096 18.10432 0 40.13056 11.66336 67.34848 35.6608 16 14.11072 30.45888 29.0304 43.20768 42.1888 21.18656 21.8624 43.08992 44.47232 55.98208 44.47232 1.28 0 3.31776-0.21504 6.18496-2.08384 8.14592-5.2992 14.32576-12.65152 22.88128-22.8352 21.50912-25.6 53.69856-63.91808 156.15488-119.66976V195.8656c-0.01024-2.96448 0.4864-17.25952 10.624-27.4688 6.03648-6.07744 14.04416-9.2928 23.15264-9.2928 13.7984 0 30.26944 7.56224 50.35008 23.10656 4.20864 3.2768 97.09056 75.67872 127.91296 107.0592 68.92032 6.11328 222.59712 33.95072 310.03136 159.29856 11.1104 15.85664 23.00928 41.20064 23.0144 64.6912 0 23.48032-11.88352 48.88576-23.00928 64.86016-37.25824 53.44256-90.33216 94.74048-157.7472 122.75712-57.57952 23.93088-113.51552 33.13152-152.30464 36.5568-30.8224 31.3344-123.69408 103.69536-127.872 106.94656-20.38784 15.80544-36.39296 23.15776-50.38592 23.15776z m0.63488-36.85888c0.0256 0.71168 0.18432 1.62304 0.38912 2.37056 2.96448-0.4096 11.43296-2.80064 28.2624-15.85152 29.43488-22.90688 109.85984-86.94272 128.01536-107.6992a17.19808 17.19808 0 0 1 11.65312-5.83168c60.2624-4.55168 209.26976-27.81184 291.12832-145.22368 8.3712-12.02688 16.83456-30.63296 16.83456-45.09184-0.01024-14.59712-8.448-33.13664-16.81408-45.07136-81.99168-117.53984-230.91712-140.73344-291.13344-145.2544a17.2032 17.2032 0 0 1-11.6736-5.84192c-18.1504-20.7872-98.57536-84.864-128.03584-107.79648-16.80896-13.01504-25.27744-15.3856-28.2368-15.7952a13.65504 13.65504 0 0 0-0.384 2.0992v137.2928a17.2032 17.2032 0 0 1-9.11872 15.18592C352.89088 403.456 322.01728 440.20224 301.5936 464.51712c-9.67168 11.51488-18.02752 21.4528-30.46912 29.54752-7.79776 5.0688-16.18944 7.63904-24.93952 7.63904-27.45856 0-50.94912-24.2432-80.68608-54.93248-12.91776-13.32736-26.27072-27.1104-41.25696-40.32512-29.21984-25.75872-42.27072-27.06432-44.59008-27.06432-0.22528 0-0.40448 0.01024-0.54272 0.02048-0.66048 1.26464-1.77664 5.16096-1.09056 12.54912 1.47968 15.81056 15.41632 53.4784 37.28384 100.74624 0.30208 0.65536 0.56832 1.3312 0.78336 2.0224 3.1232 9.85088 4.95104 25.89696-4.08064 46.39744l-0.09216 0.20992c-19.85024 43.49952-32.52224 78.40768-33.8944 93.37856-0.68608 7.40864 0.43008 11.31008 1.09568 12.56448 0.14336 0.01536 0.32256 0.0256 0.54784 0.0256 2.31936 0 15.36512-1.3056 44.58496-27.0592 14.9248-13.17888 28.24192-26.9312 41.12384-40.2176 29.78816-30.75072 53.31456-55.02976 80.80384-55.02976 8.76032 0 17.15712 2.57024 24.95488 7.63904 12.4416 8.09472 20.79744 18.03264 30.464 29.54752 20.4288 24.30976 51.29216 61.05088 155.10016 116.34176a17.19808 17.19808 0 0 1 9.1136 15.18592v136.97536z" p-id="61506"></path><path d="M799.13984 571.21792c-30.85824 0-55.97184-25.97376-55.97184-57.89696 0-31.9232 25.10848-57.90208 55.97184-57.90208s55.9616 25.97376 55.9616 57.90208c0 31.9232-25.10336 57.89696-55.9616 57.89696z m0-81.38752c-11.88864 0-21.56032 10.53696-21.56032 23.49056s9.67168 23.48544 21.56032 23.48544c11.88352 0 21.56032-10.53696 21.56032-23.48544s-9.6768-23.49056-21.56032-23.49056z" p-id="61507"></path></svg>