<?xml version="1.0" standalone="no"?><!DOCTYPE svg PUBLIC "-//W3C//DTD SVG 1.1//EN" "http://www.w3.org/Graphics/SVG/1.1/DTD/svg11.dtd"><svg t="1623854968909" class="icon" viewBox="0 0 1024 1024" version="1.1" xmlns="http://www.w3.org/2000/svg" p-id="22270" xmlns:xlink="http://www.w3.org/1999/xlink" width="200" height="200"><defs><style type="text/css"></style></defs><path d="M480.954 604.312c-8.527 0-16.837-4.365-21.512-12.227l-62.14-104.508c-7.057-11.868-3.156-27.209 8.711-34.265 11.868-7.057 27.209-3.156 34.266 8.711l62.14 104.507c7.057 11.868 3.156 27.209-8.711 34.266a24.89 24.89 0 0 1-12.754 3.516zM543.046 604.312a24.888 24.888 0 0 1-12.754-3.516c-11.867-7.057-15.768-22.397-8.711-34.266l62.14-104.507c7.055-11.868 22.396-15.769 34.266-8.711 11.867 7.056 15.768 22.397 8.711 34.265l-62.14 104.508c-4.674 7.861-12.984 12.227-21.512 12.227z" p-id="22271"></path><path d="M607.328 618.431H416.672c-13.807 0-25-11.193-25-25s11.193-25 25-25h190.655c13.807 0 25 11.193 25 25s-11.193 25-24.999 25zM588.968 691.868H435.032c-13.807 0-25-11.193-25-25s11.193-25 25-25h153.937c13.808 0 25 11.193 25 25s-11.193 25-25.001 25z" p-id="22272"></path><path d="M512 785.852c-13.807 0-25-11.192-25-25V608.965c0-13.808 11.193-25 25-25s25 11.192 25 25v151.887c0 13.807-11.194 25-25 25z" p-id="22273"></path><path d="M799.921 869.922H224.079c-38.598 0-70-31.402-70-70V224.078c0-38.598 31.402-70 70-70h575.843c38.599 0 70 31.402 70 70v575.844c-0.001 38.598-31.402 70-70.001 70zM224.079 214.078c-5.514 0-10 4.486-10 10v575.844c0 5.514 4.486 10 10 10h575.843c5.514 0 10-4.486 10-10V224.078c0-5.514-4.486-10-10-10H224.079z" p-id="22274"></path><path d="M514.151 412.452c-69.382 0-138.444-16.688-199.723-48.261-59.266-30.536-111.613-75.063-151.383-128.77-9.86-13.315-7.059-32.103 6.256-41.963 13.315-9.861 32.103-7.061 41.963 6.256 34.33 46.359 79.506 84.791 130.645 111.139 53.571 27.602 111.522 41.598 172.241 41.598 59.552 0 116.503-13.486 169.271-40.083C733.775 286.989 778.6 249.861 813.052 205c10.092-13.142 28.926-15.612 42.065-5.521 13.141 10.092 15.612 28.925 5.521 42.066-39.911 51.97-91.854 94.988-150.21 124.402-61.222 30.858-127.259 46.505-196.277 46.505z" p-id="22275"></path></svg>