<?xml version="1.0" standalone="no"?><!DOCTYPE svg PUBLIC "-//W3C//DTD SVG 1.1//EN" "http://www.w3.org/Graphics/SVG/1.1/DTD/svg11.dtd"><svg t="1623941096497" class="icon" viewBox="0 0 1024 1024" version="1.1" xmlns="http://www.w3.org/2000/svg" p-id="39571" xmlns:xlink="http://www.w3.org/1999/xlink" width="200" height="200"><defs><style type="text/css"></style></defs><path d="M720.2 627c-38.9-47.5-51-113.4-33.2-180.7 2.6-9.7 3.9-19.7 3.9-29.5 0-39.3-20.7-70.9-59.8-91.6-21-11.1-47-18.8-75.6-22.7v-111h9.7c4.4 0 8-3.6 8-8V77c0-4.4-3.6-8-8-8H458.8c-4.4 0-8 3.6-8 8v106.5c0 4.4 3.6 8 8 8h9.7v111.1c-28.7 3.9-54.7 11.6-75.6 22.7-39.1 20.6-59.8 52.3-59.8 91.6 0 9.9 1.3 19.8 3.9 29.5 17.8 67.3 5.7 133.2-33.2 180.7-32.4 39.6-49.6 85-49.6 131.5 0 60 28.4 110.8 82.1 146.9 46.4 31.2 110.4 49.1 175.6 49.1s129.2-17.9 175.6-49.1c53.7-36.1 82.1-86.9 82.1-146.9 0.1-46.5-17-92-49.4-131.6zM466.8 85h90.5v90.5h-90.4V85z m17.7 106.5h55v109.3c-9-0.7-18.2-1.1-27.5-1.1s-18.5 0.4-27.5 1.1V191.5zM512 475.4c24.9 0 45.2 20.3 45.2 45.2s-20.3 45.2-45.2 45.2-45.2-20.3-45.2-45.2 20.3-45.2 45.2-45.2z m-27.5-16V316.9c9.2-0.8 18.5-1.2 27.5-1.2s18.3 0.4 27.5 1.2v142.5h-55z m194.2 432.8c-43.9 29.5-104.6 46.3-166.7 46.3-62.1 0-122.8-16.9-166.7-46.3-34.2-23-75.1-64.8-75.1-133.6 0-42.7 15.9-84.7 45.9-121.4 42.2-51.5 55.5-122.6 36.3-194.9-2.2-8.4-3.4-16.9-3.4-25.4 0-60.4 57.6-89.3 119.4-98.1v148.7c0 2.8 1.5 5.3 3.7 6.7-13.1 11.2-21.5 27.9-21.5 46.5 0 33.8 27.5 61.2 61.2 61.2 33.8 0 61.2-27.5 61.2-61.2 0-18.6-8.3-35.3-21.5-46.5 2.2-1.4 3.7-3.9 3.7-6.7V318.7c61.8 8.8 119.4 37.6 119.4 98.1 0 8.5-1.1 17-3.4 25.4-19.2 72.4-6 143.4 36.3 194.9 30.1 36.7 45.9 78.6 45.9 121.4 0.3 68.8-40.5 110.7-74.7 133.7z" p-id="39572"></path><path d="M563.1 665.7H460.9c-4.4 0-8 3.6-8 8s3.6 8 8 8h102.3c4.4 0 8-3.6 8-8s-3.6-8-8.1-8z" p-id="39573"></path></svg>