<?xml version="1.0" standalone="no"?><!DOCTYPE svg PUBLIC "-//W3C//DTD SVG 1.1//EN" "http://www.w3.org/Graphics/SVG/1.1/DTD/svg11.dtd"><svg t="1623921432337" class="icon" viewBox="0 0 1024 1024" version="1.1" xmlns="http://www.w3.org/2000/svg" p-id="49316" xmlns:xlink="http://www.w3.org/1999/xlink" width="200" height="200"><defs><style type="text/css"></style></defs><path d="M589.277867 291.976533l50.449066-50.414933a76.8 76.8 0 1 1 135.338667-32.9728l6.212267 6.212267a76.8 76.8 0 1 1-32.938667 135.338666l-50.449067 50.449067c6.724267 18.807467 10.376533 39.082667 10.376534 60.2112 0 56.5248-26.385067 108.544-69.905067 142.0288a247.466667 247.466667 0 1 1-271.837867-217.4976 179.165867 179.165867 0 0 1 222.754134-93.354667z m47.104 25.2928c13.7216 10.308267 25.941333 22.493867 36.181333 36.215467l59.392-59.392a25.6 25.6 0 0 1 41.198933 7.099733 25.6 25.6 0 1 0 12.049067-34.133333 25.6 25.6 0 0 1-29.115733-5.0176l-28.2624-28.2624a25.6 25.6 0 0 1-4.983467-29.149867 25.6 25.6 0 1 0-34.133333 12.0832 25.6 25.6 0 0 1 7.0656 41.198934l-59.392 59.392zM529.066667 332.8a127.931733 127.931733 0 0 0-120.7296 85.435733 25.6 25.6 0 0 1-23.210667 17.1008 196.266667 196.266667 0 1 0 200.362667 160.324267 25.6 25.6 0 0 1 11.5712-26.385067A128 128 0 0 0 529.066667 332.8z" p-id="49317"></path></svg>