<?xml version="1.0" standalone="no"?><!DOCTYPE svg PUBLIC "-//W3C//DTD SVG 1.1//EN" "http://www.w3.org/Graphics/SVG/1.1/DTD/svg11.dtd"><svg t="1623517713978" class="icon" viewBox="0 0 1024 1024" version="1.1" xmlns="http://www.w3.org/2000/svg" p-id="9423" xmlns:xlink="http://www.w3.org/1999/xlink" width="200" height="200"><defs><style type="text/css"></style></defs><path d="M810.5984 547.84a25.8048 25.8048 0 0 1-0.546133 3.857067l-68.266667 307.2a25.6 25.6 0 0 1-24.9856 20.036266H307.2a25.6 25.6 0 0 1-24.9856-20.036266l-68.266667-307.2a25.6 25.6 0 0 1-0.580266-6.9632 106.052267 106.052267 0 0 1-16.349867-21.572267c-22.084267-38.263467-23.893333-94.0032-4.096-132.778667C237.056 303.889067 320.853333 239.957333 421.1712 215.313067a93.9008 93.9008 0 0 1 181.521067-0.853334c101.717333 23.9616 187.460267 88.712533 231.936 175.889067 20.036267 38.741333 18.261333 93.320533-4.096 132.1984-5.461333 9.557333-12.049067 18.090667-19.899734 25.258667z m-57.412267 23.722667a27.784533 27.784533 0 0 1-14.267733-2.56l-22.186667-10.103467a10.581333 10.581333 0 0 0-9.557333 0.443733l-0.375467 0.238934-32.8704 262.792533a25.7024 25.7024 0 0 1-1.262933 5.358933h23.586133l56.9344-256.170666z m-128.785066 256.170666a25.4976 25.4976 0 0 1-1.262934-11.707733l30.276267-242.141867a51.4048 51.4048 0 0 1-12.1856-4.676266l-19.456-10.308267a10.308267 10.308267 0 0 0-9.216-0.1024l-24.337067 11.810133-0.9216 0.443734-15.598933 249.7536a25.6 25.6 0 0 1-1.4336 6.929066h54.135467z m-102.4 0a25.531733 25.531733 0 0 1-1.4336-10.1376l15.701333-250.538666-12.219733-7.031467a10.1376 10.1376 0 0 0-10.581334 0.273067l-11.400533 7.168c-4.369067 2.730667-9.079467 4.778667-13.892267 6.144l15.2576 243.985066a25.531733 25.531733 0 0 1-1.4336 10.1376h20.002134z m-68.266667 0a25.6 25.6 0 0 1-1.4336-6.929066l-16.110933-257.877334-8.533334-4.096a10.410667 10.410667 0 0 0-9.181866 0.136534l-22.528 11.6736c-3.310933 1.706667-6.792533 3.072-10.308267 3.9936l31.6416 253.098666h36.4544z m-88.064 0l-32.6656-261.358933a25.873067 25.873067 0 0 1-0.2048-2.9696l-10.24-4.949333a10.376533 10.376533 0 0 0-8.567467-0.2048l-27.4432 11.810133a23.005867 23.005867 0 0 1-11.6736 1.536 109.431467 109.431467 0 0 1-4.096-0.3072l56.968534 256.443733h37.888z m235.9296-560.708266a93.9008 93.9008 0 0 1-178.926933 0.8192c-81.339733 22.903467-148.48 75.912533-184.1152 145.8176-11.8784 23.210667-10.6496 60.552533 2.798933 83.8656 7.304533 12.629333 17.339733 20.616533 32.017067 22.528l20.3776-8.840534a61.6448 61.6448 0 0 1 51.063466 1.1264l26.555734 12.8c0.341333 0.170667 0.785067 0.170667 1.058133 0l22.4256-11.605333a61.576533 61.576533 0 0 1 55.0912-0.8192l19.012267 9.147733a25.531733 25.531733 0 0 1 5.2224 2.423467 1.160533 1.160533 0 0 0 0.648533-0.2048l11.3664-7.133867a61.269333 61.269333 0 0 1 63.3856-1.297066l9.181867 5.256533a25.668267 25.668267 0 0 1 12.629333 0.955733l18.773333-9.1136a61.44 61.44 0 0 1 55.7056 0.955734l19.456 10.3424c0.238933 0.136533 0.546133 0.136533 0.9216-0.1024l15.189334-8.874667a61.8496 61.8496 0 0 1 56.5248-2.7648l16.896 7.714133c14.097067-2.1504 23.9616-10.24 31.232-22.9376 13.789867-23.995733 14.984533-60.1088 2.935466-83.3536-35.976533-70.5536-104.789333-124.279467-187.426133-146.705066z m-319.5904 253.952a24.849067 24.849067 0 0 0-3.754667-0.477867l3.754667 0.477867zM512 281.6a42.666667 42.666667 0 1 0 0-85.333333 42.666667 42.666667 0 0 0 0 85.333333z m-137.557333 58.709333a25.6 25.6 0 0 1 36.181333 36.181334l-34.133333 34.133333a25.6 25.6 0 0 1-36.181334-36.181333l34.133334-34.133334z m114.688 57.856a25.6 25.6 0 1 1 45.738666 22.869334l-34.133333 68.266666a25.6 25.6 0 1 1-45.738667-22.869333l34.133334-68.266667z m124.245333-21.674666a25.6 25.6 0 0 1 36.181333-36.181334l34.133334 34.133334a25.6 25.6 0 0 1-36.181334 36.181333l-34.133333-34.133333z" p-id="9424"></path></svg>