<?xml version="1.0" standalone="no"?><!DOCTYPE svg PUBLIC "-//W3C//DTD SVG 1.1//EN" "http://www.w3.org/Graphics/SVG/1.1/DTD/svg11.dtd"><svg t="1623939924887" class="icon" viewBox="0 0 1024 1024" version="1.1" xmlns="http://www.w3.org/2000/svg" p-id="22180" xmlns:xlink="http://www.w3.org/1999/xlink" width="200" height="200"><defs><style type="text/css"></style></defs><path d="M279.893333 716.8c-40.96 0-78.506667-17.066667-105.813333-47.786667s-37.546667-71.68-30.72-112.64L208.213333 201.386667c3.413333-23.893333 20.48-44.373333 44.373334-54.613334 20.48-10.24 47.786667-6.826667 68.266666 6.826667l20.48 13.653333 44.373334-44.373333c20.48-20.48 47.786667-23.893333 71.68-13.653333 23.893333 10.24 40.96 34.133333 40.96 61.44v34.133333c37.546667 6.826667 68.266667 40.96 68.266666 81.92s-27.306667 71.68-64.853333 81.92c13.653333 34.133333 54.613333 105.813333 184.32 105.813333 98.986667 0 187.733333 85.333333 187.733333 153.6 0 75.093333-112.64 85.333333-119.466666 85.333334L279.893333 716.8z m0-542.72c-6.826667 0-10.24 0-17.066666 3.413333-10.24 6.826667-20.48 17.066667-20.48 30.72L177.493333 563.2c-6.826667 30.72 3.413333 61.44 23.893334 81.92S249.173333 682.666667 279.893333 682.666667H750.933333s85.333333-6.826667 85.333334-51.2c0-51.2-75.093333-119.466667-153.6-119.466667-191.146667 0-221.866667-150.186667-221.866667-150.186667 0-3.413333 0-10.24 3.413333-13.653333 3.413333-3.413333 6.826667-6.826667 13.653334-6.826667 27.306667 0 51.2-23.893333 51.2-51.2S505.173333 238.933333 477.866667 238.933333c-10.24 0-17.066667-6.826667-17.066667-17.066666V167.253333c0-13.653333-6.826667-23.893333-20.48-30.72-13.653333-3.413333-23.893333-3.413333-34.133333 6.826667l-54.613334 54.613333c-3.413333 6.826667-13.653333 6.826667-20.48 3.413334l-30.72-20.48c-6.826667-3.413333-13.653333-6.826667-20.48-6.826667z" fill="#2D3545" p-id="22181"></path><path d="M494.933333 307.2H341.333333c-10.24 0-17.066667-6.826667-17.066666-17.066667s6.826667-17.066667 17.066666-17.066666h153.6c10.24 0 17.066667 6.826667 17.066667 17.066666s-6.826667 17.066667-17.066667 17.066667zM221.866667 921.6c-58.026667 0-102.4-44.373333-102.4-102.4 0-6.826667 0-13.653333 3.413333-20.48 0-6.826667 10.24-13.653333 17.066667-13.653333H307.2c6.826667 0 13.653333 6.826667 17.066667 13.653333 0 6.826667 3.413333 13.653333 3.413333 20.48-3.413333 54.613333-47.786667 102.4-105.813333 102.4z m-68.266667-102.4c0 37.546667 30.72 68.266667 68.266667 68.266667s68.266667-30.72 68.266666-68.266667h-136.533333z" fill="#2D3545" p-id="22182"></path><path d="M426.666667 921.6c-58.026667 0-102.4-44.373333-102.4-102.4 0-6.826667 0-13.653333 3.413333-20.48 0-6.826667 10.24-13.653333 17.066667-13.653333H512c6.826667 0 13.653333 6.826667 17.066667 13.653333 0 6.826667 3.413333 13.653333 3.413333 20.48-3.413333 54.613333-47.786667 102.4-105.813333 102.4z m-68.266667-102.4c0 37.546667 30.72 68.266667 68.266667 68.266667s68.266667-30.72 68.266666-68.266667h-136.533333z" fill="#2D3545" p-id="22183"></path><path d="M631.466667 921.6c-58.026667 0-102.4-44.373333-102.4-102.4 0-6.826667 0-13.653333 3.413333-20.48 0-6.826667 10.24-13.653333 17.066667-13.653333H716.8c6.826667 0 13.653333 6.826667 17.066667 13.653333 0 6.826667 3.413333 13.653333 3.413333 20.48-3.413333 54.613333-47.786667 102.4-105.813333 102.4z m-68.266667-102.4c0 37.546667 30.72 68.266667 68.266667 68.266667s68.266667-30.72 68.266666-68.266667h-136.533333z" fill="#2D3545" p-id="22184"></path><path d="M836.266667 921.6c-58.026667 0-102.4-44.373333-102.4-102.4 0-6.826667 0-13.653333 3.413333-20.48 0-6.826667 10.24-13.653333 17.066667-13.653333h68.266666c10.24 0 13.653333-10.24 17.066667-10.24 0-3.413333 3.413333-13.653333-6.826667-20.48l-10.24-6.826667c-6.826667-3.413333-6.826667-10.24-6.826666-17.066667s6.826667-10.24 13.653333-13.653333h6.826667c58.026667 0 102.4 44.373333 102.4 102.4s-44.373333 102.4-102.4 102.4z m-68.266667-102.4c0 37.546667 30.72 68.266667 68.266667 68.266667s68.266667-30.72 68.266666-68.266667c0-23.893333-13.653333-47.786667-34.133333-58.026667 0 6.826667 0 17.066667-3.413333 23.893334-6.826667 20.48-27.306667 34.133333-47.786667 34.133333h-51.2z" fill="#2D3545" p-id="22185"></path><path d="M819.2 819.2H136.533333c-6.826667 0-10.24-3.413333-13.653333-6.826667-3.413333-3.413333-3.413333-10.24-3.413333-17.066666l51.2-136.533334c3.413333-10.24 13.653333-13.653333 20.48-10.24 10.24 3.413333 13.653333 13.653333 10.24 20.48L160.426667 785.066667H819.2c10.24 0 13.653333-10.24 17.066667-10.24 0-3.413333 3.413333-13.653333-6.826667-20.48l-54.613333-40.96c-6.826667-6.826667-10.24-17.066667-3.413334-23.893334 6.826667-6.826667 17.066667-10.24 23.893334-3.413333l54.613333 40.96c17.066667 13.653333 23.893333 34.133333 17.066667 58.026667-6.826667 20.48-23.893333 34.133333-47.786667 34.133333zM409.6 546.133333c-6.826667 0-13.653333-3.413333-13.653333-10.24-3.413333-6.826667 0-17.066667 6.826666-23.893333l68.266667-34.133333c6.826667-3.413333 17.066667 0 23.893333 6.826666 3.413333 6.826667 0 17.066667-6.826666 23.893334l-68.266667 34.133333c-3.413333 3.413333-6.826667 3.413333-10.24 3.413333zM546.133333 580.266667c-3.413333 0-10.24 0-13.653333-3.413334-6.826667-6.826667-6.826667-17.066667 0-23.893333l34.133333-34.133333c6.826667-6.826667 17.066667-6.826667 23.893334 0s6.826667 17.066667 0 23.893333l-34.133334 34.133333s-6.826667 3.413333-10.24 3.413334z" fill="#2D3545" p-id="22186"></path></svg>