<?xml version="1.0" standalone="no"?><!DOCTYPE svg PUBLIC "-//W3C//DTD SVG 1.1//EN" "http://www.w3.org/Graphics/SVG/1.1/DTD/svg11.dtd"><svg t="1623517373665" class="icon" viewBox="0 0 1024 1024" version="1.1" xmlns="http://www.w3.org/2000/svg" p-id="43250" xmlns:xlink="http://www.w3.org/1999/xlink" width="200" height="200"><defs><style type="text/css"></style></defs><path d="M329 292.9c6.1-6.1 11.8-13 17.5-21l5.9-8.4-4.6-9.2c-7.8-15.7-17.9-29.8-30.1-42-62.5-62.5-164.3-62.5-226.8 0-6.1 6.1-11.8 12.9-17.5 21l-5.9 8.4 4.6 9.2c7.8 15.7 17.9 29.8 30.1 42 31.3 31.3 72.3 46.9 113.4 46.9s82.1-15.6 113.4-46.9z m-221.2-48.1c2.4-2.9 4.9-5.6 7.4-8.2 49.2-49.1 129.2-49.1 178.3 0 7.1 7.1 13.4 15.1 18.6 23.9-2.4 2.9-4.9 5.6-7.4 8.2-49.2 49.2-129.2 49.2-178.3 0-7.1-7.2-13.3-15.2-18.6-23.9zM358.6 247.9l8.4 5.9 9.2-4.6c10.3-5.1 19.5-11.7 27.5-19.7 40.9-40.9 40.9-107.5 0-148.4-4-4-8.5-7.7-13.7-11.5l-8.4-5.9-9.2 4.6C362 73.4 352.8 80 344.8 88c-40.9 40.9-40.9 107.5 0 148.5 4 3.9 8.5 7.7 13.8 11.4z m10.5-135.7c2.9-2.9 6-5.5 9.3-7.8l0.9 0.9c27.5 27.5 27.5 72.4 0 99.9-2.9 2.9-6 5.5-9.3 7.8l-0.9-0.9c-13.3-13.3-20.7-31.1-20.7-50s7.3-36.5 20.7-49.9zM518.8 517.6c-6.7-6.7-17.6-6.7-24.3 0L390.1 622c-6.7 6.7-6.7 17.6 0 24.3 3.4 3.4 7.7 5 12.1 5s8.8-1.7 12.1-5l104.4-104.4c6.8-6.7 6.8-17.6 0.1-24.3zM538.7 614.2l-78.2 78.2c-6.7 6.7-6.7 17.6 0 24.3 3.4 3.4 7.7 5 12.1 5 4.4 0 8.8-1.7 12.1-5l78.2-78.2c6.7-6.7 6.7-17.6 0-24.3s-17.5-6.7-24.2 0z" p-id="43251"></path><path d="M921.7 619.4C881.1 504.2 806.3 383 726.5 303.3c-73-73-152.8-100.1-237.3-80.4-72.2 16.8-132 65-169.5 102.4C255.2 389.8 124 558.4 297.6 732c79.8 79.8 200.9 154.6 316.1 195.3 61 21.5 116 32.3 163 32.3 56.1 0 101-15.3 131.4-45.8 56.1-55.9 60.9-160.5 13.6-294.4z m-37.8 270.1c-45.4 45.4-139.7 47.4-258.8 5.4-110.7-39.1-226.9-110.8-303.2-187.2C175.7 561.5 273 420.5 344 349.5c34.3-34.3 88.7-78.3 153-93.3 14.9-3.5 29.6-5.2 44.2-5.2 56.2 0 110.2 25.6 161 76.5 76.4 76.4 148.1 192.6 187.1 303.3 42 119 40.1 213.3-5.4 258.7z" p-id="43252"></path></svg>