<?xml version="1.0" standalone="no"?><!DOCTYPE svg PUBLIC "-//W3C//DTD SVG 1.1//EN" "http://www.w3.org/Graphics/SVG/1.1/DTD/svg11.dtd"><svg t="1623921220467" class="icon" viewBox="0 0 1024 1024" version="1.1" xmlns="http://www.w3.org/2000/svg" p-id="34129" xmlns:xlink="http://www.w3.org/1999/xlink" width="200" height="200"><defs><style type="text/css"></style></defs><path d="M719.6 298.3c56.5-36.5 90.3-100.2 100.3-176.9-37-15.4-74.2-23.5-109.7-23.5-36.3 0-71 8.5-102 26.4-47 27.1-79.4 72.3-96.7 128C494 182.6 443.8 132 384.6 132c-10.1 0-18.3 8.2-18.3 18.3 0 10.1 8.2 18.3 18.3 18.3 50.8 0 92.6 56 96.5 126.9-18.1-0.4-37.9-1-60.9-1.7h-71.3c-120.1 0-217.5 97.4-217.5 217.5S243.4 926 363.5 926c25.5 0 69.7-9.9 109.5-29 17-8.2 28-12.2 39-12.2s22 4.1 39 12.2c39.8 19.1 84 29 109.5 29 120.1 0 232.1-294.6 232.1-414.8 0-104.8-74.3-192.3-173-212.9zM626.4 156c33.3-18.9 65.7-21.5 83.8-21.5 22 0 44.9 3.6 68.4 10.8-13.4 57.7-43.1 102-85.3 126.4-24.7 14.3-52.9 21.5-83.8 21.5-22 0-44.9-3.6-68.4-10.8 2.1-11.9 16.5-87.3 85.3-126.4z m34.1 733.5c-20.3 0-59-8.7-93.7-25.4-20.9-10-36.6-15.8-54.8-15.8-18.2 0-33.9 5.8-54.8 15.8-34.7 16.7-73.4 25.4-93.7 25.4-36.7 0-85.8-54.3-128.2-141.7-44.2-91.2-67.3-188-67.3-236.5 0-99.8 81.2-180.9 180.9-180.9h70.4c49.5 1.6 88 2.5 126.6 2.5 33.4 0 68-0.7 123.3-2.4 1.9-0.1 3.9-0.1 5.8-0.1 99.8 0 180.9 81.2 180.9 180.9 0 48.5-23.1 145.3-67.3 236.5-42.3 87.4-91.4 141.7-128.1 141.7z" fill="#454A57" p-id="34130"></path></svg>