<?xml version="1.0" standalone="no"?><!DOCTYPE svg PUBLIC "-//W3C//DTD SVG 1.1//EN" "http://www.w3.org/Graphics/SVG/1.1/DTD/svg11.dtd"><svg t="1621849234578" class="icon" viewBox="0 0 1024 1024" version="1.1" xmlns="http://www.w3.org/2000/svg" p-id="789" xmlns:xlink="http://www.w3.org/1999/xlink" width="200" height="200"><defs><style type="text/css"></style></defs><path d="M674.291247 960.547853c-33.17661 0-19.181875 0-40.799218 0L633.492028 594.051761c9.559727-0.124843 13.43294-0.186242 15.619746-0.186242 4.436032 0 2.186805 0.186242 25.179472 0.186242L674.291247 960.547853 674.291247 960.547853 674.291247 960.547853zM123.670647 960.297143c-4.435009 0-9.621125-0.125867-20.180622-0.436952L103.490026 634.974799c4.686742 0.062422 8.123005 0.125867 10.934027 0.125867 3.811816 0 6.373151-0.063445 8.872065-0.125867 2.435469-0.125867 4.998851-0.188288 8.747221-0.188288 3.061732 0 6.935969 0 12.245905 0.188288l0 324.885392C133.292795 960.110901 128.983653 960.297143 123.670647 960.297143L123.670647 960.297143 123.670647 960.297143zM901.460106 959.986057c-4.186346 0-5.247514-0.375553-23.428595-0.626263L878.031511 390.18563c3.247974 0 5.810333-0.062422 7.747451-0.062422 4.686742 0 6.123464 0.124843 7.122211 0.312108 1.124614 0.062422 1.812275 0.248663 5.625114 0.248663 3.372817 0 9.307993-0.122797 20.304442-0.499373l0 569.175187C908.082944 959.798792 904.083863 959.986057 901.460106 959.986057L901.460106 959.986057 901.460106 959.986057zM411.132708 959.986057c-3.998057 0-4.060479-0.375553-22.303982-0.626263L388.828726 552.878013c10.308787 0.313132 14.557554 0.437975 17.056468 0.437975 4.685719 0 3.561106-0.375553 23.74275-0.437975l0 406.482805C417.881412 959.798792 413.695067 959.986057 411.132708 959.986057L411.132708 959.986057 411.132708 959.986057z" p-id="790"></path><path d="M85.305875 495.679289l-22.561855-33.936927 298.936393-199.00031 22.562878 33.93795L85.305875 495.679289M342.055446 298.493302l19.623943-35.750225 231.001141 126.624932L918.803099 63.680345l28.813233 28.875654L621.49274 418.241616l-21.624507 21.563108-26.750247-14.687514L342.055446 298.493302M342.055446 298.493302l19.623943-35.750225 22.562878 33.93795-22.562878-33.93795L342.055446 298.493302 342.055446 298.493302 342.055446 298.493302z" p-id="791"></path><path d="M959.580828 104.440677 714.979948 104.440677 714.979948 63.704904 959.580828 63.704904 959.580828 104.440677 959.580828 104.440677Z" p-id="792"></path><path d="M959.580828 308.306808 918.845055 308.306808 918.845055 63.704904 959.580828 63.704904 959.580828 308.306808 959.580828 308.306808Z" p-id="793"></path></svg>