<?xml version="1.0" standalone="no"?><!DOCTYPE svg PUBLIC "-//W3C//DTD SVG 1.1//EN" "http://www.w3.org/Graphics/SVG/1.1/DTD/svg11.dtd"><svg t="1623941744787" class="icon" viewBox="0 0 1024 1024" version="1.1" xmlns="http://www.w3.org/2000/svg" p-id="60293" xmlns:xlink="http://www.w3.org/1999/xlink" width="200" height="200"><defs><style type="text/css"></style></defs><path d="M860.857 556.956c0-58.171-47.325-105.496-105.496-105.496-58.171 0-105.496 47.325-105.496 105.496 0 49.05 33.696 90.268 79.122 102.024v1.618c0 79.324-64.535 143.859-143.859 143.859s-143.859-64.535-143.859-143.859v-26.887c123.984-14.318 220.583-119.885 220.583-247.643V162H549.164v57.543h55.146v166.524c0 105.763-86.048 191.812-191.812 191.812s-191.812-86.048-191.812-191.812V219.543h47.953V162H163.143v224.067c0 127.759 96.599 233.326 220.583 247.643v26.887C383.726 771.653 474.073 862 585.128 862S786.53 771.653 786.53 660.598v-2.853c43.001-13.327 74.327-53.465 74.327-100.789z m-105.496 47.953c-26.44 0-47.953-21.513-47.953-47.953s21.513-47.953 47.953-47.953 47.953 21.513 47.953 47.953-21.513 47.953-47.953 47.953z" p-id="60294"></path></svg>