<?xml version="1.0" standalone="no"?><!DOCTYPE svg PUBLIC "-//W3C//DTD SVG 1.1//EN" "http://www.w3.org/Graphics/SVG/1.1/DTD/svg11.dtd"><svg t="1623939500755" class="icon" viewBox="0 0 1024 1024" version="1.1" xmlns="http://www.w3.org/2000/svg" p-id="6916" xmlns:xlink="http://www.w3.org/1999/xlink" width="200" height="200"><defs><style type="text/css"></style></defs><path d="M904.533333 806.186667l9.813334-13.44 6.826666-10.026667c5.546667-8.32 10.88-16.64 15.786667-25.386667s8.533333-15.146667 12.373333-22.826666A490.666667 490.666667 0 0 0 411.52 32.426667h-2.133333c-7.893333 1.706667-16 2.986667-23.893334 5.12s-14.506667 4.693333-21.333333 7.04l-4.053333 1.28a485.973333 485.973333 0 0 0-192 116.48q-8.533333 8.32-16.64 17.28c-4.693333 5.12-9.173333 10.24-13.653334 15.36-7.68 9.173333-15.36 18.56-21.333333 28.16l-4.266667 6.186666c-8.32 11.946667-16.426667 24.106667-23.68 36.906667q-6.613333 11.306667-12.373333 22.826667a490.666667 490.666667 0 0 0 812.16 537.386666l6.613333-7.893333z m-281.6 139.306666a449.92 449.92 0 0 1-13.866666-167.893333h11.093333a21.333333 21.333333 0 0 0 0-42.666667h-4.48a444.373333 444.373333 0 0 1 40.533333-114.986666l17.493334 10.026666a21.333333 21.333333 0 1 0 21.333333-36.906666l-17.493333-10.026667A444.16 444.16 0 0 1 756.906667 490.666667l2.133333 3.84a21.333333 21.333333 0 1 0 36.906667-21.333334l-5.546667-9.6a449.92 449.92 0 0 1 152.32-71.893333 446.08 446.08 0 0 1-320 554.666667z m-207.786666-701.866666h-16.426667a21.333333 21.333333 0 0 0 0 42.666666h10.24a444.16 444.16 0 0 1-40.96 117.973334l-22.826667-13.013334a21.333333 21.333333 0 1 0-21.333333 36.906667l22.826667 13.013333a444.16 444.16 0 0 1-81.706667 94.506667l-5.12-8.746667a21.333333 21.333333 0 1 0-36.906667 21.333334l8.106667 14.293333a449.706667 449.706667 0 0 1-149.333333 70.186667 448 448 0 0 1 21.973333-304.853334c6.186667-13.44 12.8-26.88 21.333333-39.893333a448 448 0 0 1 277.333334-209.493333 449.92 449.92 0 0 1 12.8 164.906666z m-128 656.426666a445.44 445.44 0 0 1-192.64-226.986666 492.8 492.8 0 0 0 158.08-73.386667l12.8 21.333333a21.333333 21.333333 0 1 0 36.906666-21.333333l-15.786666-27.306667A487.68 487.68 0 0 0 384 462.72l13.866667 7.893333a21.333333 21.333333 0 1 0 21.333333-36.906666L405.333333 426.666667a487.68 487.68 0 0 0 47.36-139.52h31.573334a21.333333 21.333333 0 0 0 0-42.666667h-26.026667a492.8 492.8 0 0 0-15.573333-173.866667 446.72 446.72 0 0 1 486.826666 280.32A492.8 492.8 0 0 0 768 426.666667l-15.573333-27.093334a21.333333 21.333333 0 0 0-36.906667 21.333334l18.56 32.213333A487.68 487.68 0 0 0 640 561.28l-18.986667-10.88a21.333333 21.333333 0 0 0-21.333333 36.906667L618.666667 597.333333a487.466667 487.466667 0 0 0-46.72 136.533334h-37.12a21.333333 21.333333 0 1 0 0 42.666666h31.146666a492.8 492.8 0 0 0 15.146667 176.64 445.653333 445.653333 0 0 1-293.12-53.333333z" p-id="6917"></path></svg>