<?xml version="1.0" standalone="no"?><!DOCTYPE svg PUBLIC "-//W3C//DTD SVG 1.1//EN" "http://www.w3.org/Graphics/SVG/1.1/DTD/svg11.dtd"><svg t="1623941168151" class="icon" viewBox="0 0 1024 1024" version="1.1" xmlns="http://www.w3.org/2000/svg" p-id="42360" xmlns:xlink="http://www.w3.org/1999/xlink" width="200" height="200"><defs><style type="text/css"></style></defs><path d="M469.781319 831.323306v-0.968224V124.519354c0-31.674776-50.624314-45.921509-100.833675-45.92151a207.476698 207.476698 0 0 0-63.902823 9.267293c-29.876645 10.235517-36.100946 25.588793-36.100946 36.654217v702.239465a29.185056 29.185056 0 0 0 0 3.596263 16.3215 16.3215 0 0 0 0.968225 2.766355l82.990679 179.813139a17.289725 17.289725 0 0 0 15.768229 10.097199 17.56636 17.56636 0 0 0 15.906547-10.097199l82.99068-179.813139a10.512153 10.512153 0 0 0 2.213084-1.798131z m-73.723387 76.904696a112.314053 112.314053 0 0 0-26.418699-3.181309 110.654239 110.654239 0 0 0-26.280382 3.181309l-37.345806-80.639276a138.317799 138.317799 0 0 1 63.626188-11.895331 138.317799 138.317799 0 0 1 63.764505 11.895331z m-92.396289-668.074968c5.809348-4.979441 29.323373-13.83178 65.97759-13.83178s60.30656 8.575704 65.97759 13.83178v467.652478a202.912211 202.912211 0 0 0-65.97759-9.820564 202.082304 202.082304 0 0 0-65.839272 9.820564z m65.97759 540.684275a202.082304 202.082304 0 0 0-65.839272 9.820564V746.949449c5.67103-4.979441 29.185056-13.83178 65.839272-13.83178s60.30656 8.575704 65.97759 13.83178v44.400013a202.912211 202.912211 0 0 0-65.97759-10.512153z m0-667.383379c36.654217 0 60.168243 8.437386 65.97759 13.83178v74.691611a199.17763 199.17763 0 0 0-65.97759-9.958882 199.730902 199.730902 0 0 0-65.97759 9.958882V127.009074c5.809348-5.117759 29.046738-13.555144 65.97759-13.555144zM358.435491 940.594367a76.351425 76.351425 0 0 1 11.203742-0.829907 76.766378 76.766378 0 0 1 11.342059 0.829907l-11.342059 24.205615z" p-id="42361"></path><path d="M268.943875 757.046648h-38.037394V428.818511l38.037394 38.452348v-49.379454l-43.155153-43.431789a17.428043 17.428043 0 0 0-29.876645 12.310284V774.613009a17.56636 17.56636 0 0 0 17.566361 17.56636h55.327119zM610.173885 717.072804L471.026179 614.440997V650.12699l85.4804 62.657962H471.026179v25.865429h127.252375a18.534585 18.534585 0 0 0 16.183183-7.745797 10.373835 10.373835 0 0 0-4.287852-13.83178zM369.639233 940.594367a76.351425 76.351425 0 0 0-11.203742 0.829907l3.042992 6.500937h16.3215l3.181309-6.500937a76.766378 76.766378 0 0 0-11.342059-0.829907z" p-id="42362"></path><path d="M306.842952 912.930807H77.097088v-71.786937h52.699082a17.428043 17.428043 0 1 0 0-34.856086H77.097088v-69.158899h52.699082a17.428043 17.428043 0 1 0 0-34.856085H77.097088v-69.1589h52.699082a17.428043 17.428043 0 1 0 0-34.856085H77.097088v-69.1589h52.699082a17.428043 17.428043 0 1 0 0-34.856085H77.097088v-69.158899h52.699082a17.428043 17.428043 0 0 0 0-34.856086H77.097088V318.164272h52.699082a17.428043 17.428043 0 0 0 0-34.856085H77.097088v-70.40376h52.699082a17.428043 17.428043 0 1 0 0-34.856085H77.097088V59.924942l191.846787 193.644918v-49.794408L72.117647 5.151093A17.704678 17.704678 0 0 0 53.029791 1.278195 17.704678 17.704678 0 0 0 42.241003 17.461377v912.897473a17.428043 17.428043 0 0 0 17.428043 17.289725h262.803817zM976.577735 917.77193L471.026179 407.102617V456.482071l451.469296 456.448736H432.573831L415.69906 947.371939h548.56839a17.289725 17.289725 0 0 0 12.310285-29.600009zM369.639233 635.188667a17.428043 17.428043 0 0 1-17.428043-17.428042V329.782967a17.428043 17.428043 0 1 1 34.856086 0v287.977658a17.289725 17.289725 0 0 1-17.428043 17.428042z" p-id="42363"></path></svg>