<?xml version="1.0" standalone="no"?><!DOCTYPE svg PUBLIC "-//W3C//DTD SVG 1.1//EN" "http://www.w3.org/Graphics/SVG/1.1/DTD/svg11.dtd"><svg t="1623921152653" class="icon" viewBox="0 0 1024 1024" version="1.1" xmlns="http://www.w3.org/2000/svg" p-id="33024" xmlns:xlink="http://www.w3.org/1999/xlink" width="200" height="200"><defs><style type="text/css"></style></defs><path d="M424.1 903.7c-21 0-40.7-2.2-59.2-6.6-39.1-9.3-72.7-28.1-105.7-59.2l-12.9-2.4c-12.1-2.3-20.9-12.8-20.9-25v-71.8c0-12.7 9.1-23.3 21.7-25.2l21.1-3h0.1c9.4-5.4 27.1-15.3 39.5-19.4l0.8-0.3 0.9-0.2c0.7-0.1 69-13 148.5-45.7 46.4-19.1 87.4-41.2 122-65.6 42.7-30.1 75.5-63.9 97.5-100.3 37.7-62.5 44.3-134.3 19.7-213.4-3.4-10.9-9-21.4-16.8-31.2-8.4-10.7-13.8-22.7-16-35.8-2.3-12.8 5.6-25.4 18.2-28.8l72.2-19.9c7.7-2.1 15.7-0.6 22.1 4.3 6.4 4.8 10 12.2 10 20.2v11.3l-0.1 0.6c-0.1 0.7-6.3 70.6 26.3 129.1v0.1C830 328 914.1 395.2 918 501.3c3.1 85.9-46.8 173.5-148.3 260.1-34.3 29.3-71.6 54.8-110.8 75.8-39.8 21.3-81.7 38.1-124.7 49.9-40.5 11.1-76.9 16.6-110.1 16.6zM264 812.3c4.8 0.8 9.3 3.1 13 6.6 45.4 42.8 110.7 81.4 250.4 43.2 81.3-22.3 159.3-63.9 225.4-120.3 95.1-81.3 142-161.8 139.2-239.4-3.4-94.1-79-154.5-94.3-165.8-2.7-2-5.1-4.6-7-7.7l-0.2-0.4c-35.4-63.4-30.4-135.7-29.6-143.9v-9.3L690 194.8c1.5 8.6 5.1 16.5 10.7 23.6 9.7 12.3 16.9 25.6 21.2 39.6 27 86.5 19.5 165.5-22.3 234.6-23.9 39.6-59.2 76-105 108.3-36.2 25.5-79 48.5-127.3 68.4-77.7 32-143.2 45.1-152.2 46.9-7.4 2.6-20 8.9-33.9 16.9-3.1 1.8-6.2 2.8-9.3 3.2l-20.5 2.9V810l12.6 2.3z m549.1-496.7zM685.8 182.4z" fill="" p-id="33025"></path><path d="M307.8 717.7c-0.8 0-1.7-0.1-2.5-0.2-60.8-12-108.2-31.1-144.9-58.5-30.1-22.4-52.7-50-71-86.6-0.1-0.2-0.2-0.3-0.3-0.3l-11.1-7c-10.4-6.7-14.6-19.3-10-30.1l25.4-59.2c4.8-11.1 17.5-16.8 29.6-13.3l20.2 5.8c0.3 0.1 0.5 0.1 0.6 0.1 13-0.9 30.9-1.8 42.7-0.4l0.8 0.1 0.8 0.2c0.7 0.2 71.4 17.4 159 21.3 51.1 2.3 97.9-0.4 139-7.9 50.7-9.2 92.7-25.8 125.1-49.4 23.6-17.2 42.4-38.4 55.9-63.1 14.9-27.3 23.8-59.6 26.3-96.1 0.4-6.3 0-13-1.2-19.8-1.3-7.1 3.4-13.8 10.5-15.1 7.1-1.3 13.8 3.4 15.1 10.5 1.6 8.9 2.1 17.7 1.6 26.2-5.5 77.6-36.7 137.6-92.9 178.4-35.6 25.9-81.3 44-136 54-43.1 7.8-91.9 10.6-145.1 8.2-85.8-3.8-153.8-19.6-162.7-21.7-7.8-0.8-21.3-0.5-37.3 0.6-2.8 0.2-5.8-0.1-8.8-0.9l-0.4-0.1-19.8-5.7-24 55.9 10.6 6.7c3.7 2.4 6.8 5.8 9 9.7l0.2 0.5c16.5 33.1 36.7 57.8 63.5 77.8 33.5 25 77.5 42.6 134.4 53.8 7 1.4 11.6 8.2 10.2 15.3-1 6-6.4 10.3-12.5 10.3z" fill="" p-id="33026"></path></svg>