<?xml version="1.0" standalone="no"?><!DOCTYPE svg PUBLIC "-//W3C//DTD SVG 1.1//EN" "http://www.w3.org/Graphics/SVG/1.1/DTD/svg11.dtd"><svg t="1623943387881" class="icon" viewBox="0 0 1024 1024" version="1.1" xmlns="http://www.w3.org/2000/svg" p-id="96766" xmlns:xlink="http://www.w3.org/1999/xlink" width="200" height="200"><defs><style type="text/css"></style></defs><path d="M960.67072 687.27808c-0.56832-19.39968-3.62496-48.128-7.79264-73.32352-8.21248-49.55648-17.59232-67.71712-21.74464-74.65472-0.95744-3.1488-3.72736-14.82752-6.64064-51.46112-2.176-27.36128-3.78368-59.97568-5.2224-88.73984-1.09568-22.12864-2.13504-43.02848-3.26144-58.35264-0.65536-8.86784-1.3056-15.27808-2.0224-20.21376-0.98816-6.70208-3.96288-27.0592-24.58112-33.93536-5.49376-1.83296-10.74688-2.18112-17.9712-2.18112-6.17472 0-14.49984 0.28672-25.05728 0.65024-15.26272 0.52736-34.26816 1.1776-53.85216 1.1776-24.21248 0-44.08832-1.03424-59.0848-3.08736-26.35776-3.59936-40.28416-11.3152-53.08928-21.80608-17.57184-14.3872-61.54752-31.75424-89.81504-31.75424-9.984 0-18.75456 2.06848-26.05568 6.12864-18.78528 10.43968-22.6048 32.70656-25.64608 60.75904-2.18112 20.1472-3.74272 46.08-5.25312 71.14752-1.8944 31.4368-4.7616 78.84288-8.46848 89.96864-9.76896 21.66272-29.39392 45.2352-53.89312 64.72192-16.44032 13.08672-55.68 31.99488-104.96 50.5856-49.55136 18.70336-87.38304 28.84608-97.3312 29.82912-12.544 1.22368-27.15648 1.80224-45.97248 1.80224-9.69728 0-19.04128-0.13824-28.07808-0.28672-7.78752-0.12288-15.13984-0.24064-21.72928-0.24064-17.63328 0-27.008 0.89088-34.5856 3.26656-29.35296 9.23136-40.17664 41.96864-42.78272 51.7888l-0.36864 1.39776-0.25088 1.4336-3.43552 19.59936-5.20704 13.34784-0.36352 0.95744-0.31744 0.96768c-6.46144 20.08576-13.4656 49.3312 0.18944 71.31648 4.80768 7.7312 11.87328 13.7216 19.78368 16.97792 41.51296 21.39648 117.0432 35.95264 230.71232 44.48768 90.56768 6.79936 182.23616 7.81312 228.83328 7.81312 15.44192 0 26.07104-0.11264 30.49472-0.1536 11.67872 1.3056 27.02336 1.93536 46.76608 1.93536 44.86144 0 113.30048-3.54304 183.10144-9.4976 29.48096-2.51392 56.61696-5.26336 76.3904-7.73632 10.37824-1.3056 18.66752-2.51392 24.6528-3.61472 3.92704-0.7168 6.94784-1.39776 9.54368-2.14528 17.00352-4.90496 23.00416-16.7168 25.05728-23.3216 1.81248-5.93408 3.7376-12.06272-0.6912-105.55392zM492.032 548.51584c26.95168-21.4272 51.18464-49.38752 63.80032-77.65504 12.43136-27.89376 10.4192-197.84192 24.86784-205.86496 2.4064-1.33632 5.7856-1.90976 9.8304-1.90976 20.29056 0 57.17504 14.8224 68.6336 24.19712 17.06496 13.96224 36.63872 24.52992 69.74976 29.05088 19.0976 2.6112 41.76384 3.40992 63.62112 3.40992 33.3056 0 64.7424-1.82784 78.91968-1.82784 3.81952 0 6.38464 0.12288 7.3984 0.47616 7.08608 2.3552 7.60832 204.25728 21.98016 235.29472-39.78752 3.21536-150.38464 16.45568-263.66976 68.33152-61.31712 28.07808-111.26272 17.64864-127.6416 12.84608l-36.54656-73.56928c7.43424-4.42368 13.91104-8.68864 19.05664-12.77952z m-363.92448 119.17312s6.41536-24.06912 20.46976-28.48768c4.31616-1.3568 13.08672-1.73568 24.54528-1.73568 13.70624 0 31.27808 0.52736 49.80736 0.52736 16.34304 0 33.408-0.4096 49.2288-1.96096 24.97536-2.43712 110.92992-30.5664 171.13088-59.27936l42.14784 84.82816 5.888 2.38592c1.6896 0.68608 25.82016 10.15296 62.85312 10.15296 26.75712 0 60.26752-4.95104 96.896-21.72928 119.07584-54.54336 238.33088-64.55808 262.03136-66.0736 7.13216 28.19584 11.8272 65.63328 13.50656 90.11712-27.78112-2.2272-35.04128-2.16576-67.65568-1.90976-14.2592 0.10752-33.77664 0.256-62.19776 0.2816-39.61856 0.03584-64.33792 8.56576-92.9792 18.46272-43.03872 14.86848-96.5888 33.41824-234.06592 32.52736-224.83456-1.40288-337.59744-42.86464-339.64544-43.64288a16.86016 16.86016 0 0 0-4.33152-1.00352l2.37056-13.46048z m801.29024 115.1488c-1.6896 5.41184-186.83904 22.84032-286.8224 22.84032-18.49344 0-34.048-0.5888-45.01504-1.97632 0 0-11.99104 0.18944-32.23552 0.18944-93.17888 0-361.66144-4.06016-446.03904-49.55136 0 0-14.70976-2.24256-3.24608-41.94304 0.6656 0.36352 1.35168 0.70656 2.08384 0.98304 4.74624 1.8176 118.69696 44.42112 351.39584 45.84448 3.15392 0.02048 6.25664 0.03072 9.30816 0.03072 136.33536 0 191.42656-19.03104 235.88352-34.3808 26.8544-9.27744 48.07168-16.59392 82.0736-16.61952 28.54912-0.01024 48.14848-0.17408 62.4384-0.2816 34.47808-0.27648 39.05024-0.3072 68.95616 2.14528 1.09056 26.47552 2.57024 68.3776 1.21856 72.71936z" p-id="96767"></path><path d="M607.1296 387.36896a34.31936 34.31936 0 1 0 68.63872 0 34.31936 34.31936 0 0 0-68.63872 0zM580.77184 501.46304a34.31424 34.31424 0 1 0 68.6336 0 34.31936 34.31936 0 1 0-68.6336 0z" p-id="96768"></path></svg>