<?xml version="1.0" standalone="no"?><!DOCTYPE svg PUBLIC "-//W3C//DTD SVG 1.1//EN" "http://www.w3.org/Graphics/SVG/1.1/DTD/svg11.dtd"><svg t="1623920474642" class="icon" viewBox="0 0 1024 1024" version="1.1" xmlns="http://www.w3.org/2000/svg" p-id="20343" xmlns:xlink="http://www.w3.org/1999/xlink" width="200" height="200"><defs><style type="text/css"></style></defs><path d="M273.941 417.008l489.051-7.404 0.182 12-489.051 7.402z" fill="#274359" p-id="20344"></path><path d="M273.308 415.43l10.748-5.336 258.238 520.133-10.749 5.337z" fill="#274359" p-id="20345"></path><path d="M531.39 930.761l217.378-522.07 11.078 4.614-217.378 522.07zM293.2 419.5c-5-28.5-8.9-60.7 4.8-87.5 9.8-19.2 27.7-33.1 47.9-40.2 20.8-7.2 43.8-7.8 64.5-0.2 21.9 8 39.7 25.2 51.1 45.2 13.4 23.3 19 51.2 15 77.8-1.1 7.5 10.4 10.8 11.6 3.2 0.5-3.3 1.1-6.7 1.6-10 1.2-7.6-10.4-10.8-11.6-3.2-0.5 3.3-1.1 6.7-1.6 10 3.9 1.1 7.7 2.1 11.6 3.2 7.8-52-16.3-110.5-65.3-133.9-44.3-21.2-103.8-6.9-131 34.8-20.1 30.7-16.3 69.6-10.2 103.9 1.4 7.7 12.9 4.5 11.6-3.1z" fill="#274359" p-id="20346"></path><path d="M480.9 329.7c10.8-31 45.4-46.9 76.1-49.6 19.6-1.8 40.3 0.5 56.1 13.3 13.6 11.1 22.5 27.2 26.9 44 6.4 24.2 4.4 49.7 1.9 74.3h12c0-2.7-0.1-5.3-0.1-8-0.1-7.7-12.1-7.7-12 0 0 2.7 0.1 5.3 0.1 8 0.1 7.9 11.2 7.5 12 0 4.4-43 5-93.6-30.1-124.9-30.7-27.5-80.6-23.2-115-4.7-18.1 9.7-32.7 24.9-39.5 44.4-2.5 7.3 9.1 10.4 11.6 3.2z" fill="#274359" p-id="20347"></path><path d="M639.1 308.7c8.8-10.6 23.2-11.8 36.1-11.9 14.3-0.1 28.7 2.2 40.7 10.4 21.5 14.6 30.8 42.1 33.3 66.9 1.4 14.4 1 28.8 0 43.2-0.5 7.7 11.5 7.7 12 0 2-28.6 1.4-58.5-10.5-85-6-13.4-15.4-25.9-27.4-34.4-13.3-9.5-29.7-12.8-45.8-13-16.5-0.2-35.7 1.8-47 15.4-4.8 5.8 3.6 14.3 8.6 8.4z" fill="#274359" p-id="20348"></path><path d="M352.4 284.8c8.5-55.2 46.4-105.1 99.8-123.6 28.5-9.9 59.8-11.2 88.8-3.1 29.9 8.3 56 27.2 77.4 49.1 22.5 23.1 40.5 52.2 44.4 84.7 0.9 7.6 12.9 7.7 12 0-3.7-31.1-18.2-59-38.3-82.6-21.1-24.9-48.5-46.7-79.1-58.4-60-23.1-130.5-5.4-173.7 41.8-22.6 24.7-37.8 55.9-42.9 89-1.1 7.5 10.5 10.7 11.6 3.1z" fill="#274359" p-id="20349"></path><path d="M672.7 275.5c28.6-28.7 57.3-57.3 85.9-86 5.5-5.5-3-14-8.5-8.5-28.6 28.7-57.3 57.3-85.9 86-5.5 5.5 3 14 8.5 8.5zM715 292.7l139.3-138.4c5.5-5.5-3-13.9-8.5-8.5L706.5 284.2c-5.5 5.5 3 14 8.5 8.5zM324.23 516.542l6.479-10.1 304.022 195.011-6.479 10.1zM421.242 711.573l6.542-10.06L590.75 807.5l-6.543 10.06z" fill="#274359" p-id="20350"></path></svg>