<?xml version="1.0" standalone="no"?><!DOCTYPE svg PUBLIC "-//W3C//DTD SVG 1.1//EN" "http://www.w3.org/Graphics/SVG/1.1/DTD/svg11.dtd"><svg t="1623942199842" class="icon" viewBox="0 0 1024 1024" version="1.1" xmlns="http://www.w3.org/2000/svg" p-id="74618" xmlns:xlink="http://www.w3.org/1999/xlink" width="200" height="200"><defs><style type="text/css"></style></defs><path d="M704 76.8c-38.4 0-69.12 0-128 28.16l-7.68 5.12c-17.92 10.24-35.84 17.92-56.32 17.92-20.48 0-38.4-10.24-58.88-20.48l-5.12-2.56c-56.32-28.16-89.6-28.16-125.44-28.16-133.12 0-243.2 110.08-243.2 243.2v38.4c0 176.64 74.24 366.08 209.92 527.36l2.56 5.12c15.36 17.92 46.08 56.32 92.16 56.32 48.64 0 76.8-40.96 76.8-76.8 0-40.96 0-153.6 51.2-153.6s51.2 112.64 51.2 153.6c0 35.84 28.16 76.8 76.8 76.8 46.08 0 79.36-38.4 92.16-56.32l2.56-5.12c135.68-163.84 209.92-350.72 209.92-527.36v-38.4c2.56-133.12-107.52-243.2-240.64-243.2z m192 281.6c0 166.4-71.68 340.48-199.68 496.64l-2.56 5.12c-12.8 15.36-30.72 38.4-53.76 38.4-17.92 0-25.6-15.36-25.6-25.6 0-56.32 0-204.8-102.4-204.8s-102.4 148.48-102.4 204.8c0 10.24-7.68 25.6-25.6 25.6-23.04 0-40.96-23.04-53.76-38.4l-2.56-5.12c-128-153.6-199.68-330.24-199.68-496.64v-38.4c0-104.96 87.04-192 192-192 35.84 0 58.88 0 104.96 23.04l5.12 2.56h-43.52c-15.36 0-25.6 10.24-25.6 25.6s10.24 25.6 25.6 25.6c76.8 0 133.12 0 215.04-53.76 46.08-23.04 69.12-23.04 104.96-23.04 104.96 0 192 87.04 192 192v38.4z" p-id="74619"></path><path d="M668.16 184.32c-15.36 0-25.6 10.24-25.6 25.6s10.24 25.6 25.6 25.6c69.12 0 125.44 56.32 125.44 125.44v25.6c0 15.36 10.24 25.6 25.6 25.6s25.6-10.24 25.6-25.6v-25.6c0-97.28-79.36-176.64-176.64-176.64z" p-id="74620"></path></svg>