<?xml version="1.0" standalone="no"?><!DOCTYPE svg PUBLIC "-//W3C//DTD SVG 1.1//EN" "http://www.w3.org/Graphics/SVG/1.1/DTD/svg11.dtd"><svg t="1623942245172" class="icon" viewBox="0 0 1024 1024" version="1.1" xmlns="http://www.w3.org/2000/svg" p-id="75173" xmlns:xlink="http://www.w3.org/1999/xlink" width="200" height="200"><defs><style type="text/css"></style></defs><path d="M445.40416 100.31616a108.52352 108.52352 0 0 1 108.97408 108.97408 108.5184 108.5184 0 0 1-108.97408 108.97408 108.5184 108.5184 0 0 1-108.97408-108.97408 108.5184 108.5184 0 0 1 108.97408-108.97408m0-36.32128c-79.91808 0-145.30048 65.38752-145.30048 145.29536 0 79.91808 65.38752 145.30048 145.30048 145.30048s145.30048-65.38752 145.30048-145.30048-65.3824-145.29536-145.30048-145.29536z m72.6528 351.13984v6.05696l2.42176 6.05696 20.58752 61.75232 10.89024 31.47776 31.48288-7.26528c2.42176-1.20832 4.84352-1.20832 7.26528-1.20832 19.37408 0 36.3264 15.73888 36.3264 35.11296v3.63008l-2.42176 30.27456 29.056 8.46848c56.91392 16.95744 95.66208 69.0176 95.66208 127.13984 0 46.01344-24.21248 88.39168-64.17408 113.8176l-24.2176 14.53056 9.69216 27.84768 16.95744 49.64352H278.30784L396.96896 422.4l1.21344-3.63008v-3.63008h119.87456m0-36.33152h-121.088c-20.5824 0-36.32128 15.73888-36.32128 36.32128L239.5648 923.68384c0 20.58752 15.73888 36.3264 36.3264 36.3264h411.68896c20.5824 0 36.32128-15.73888 36.32128-36.3264l-20.5824-61.75744c48.43008-30.26944 81.1264-83.54304 81.1264-144.09216 0-77.4912-50.85696-141.66528-122.30144-162.24768 0-2.42176 1.21344-4.84352 1.21344-7.26528 0-39.95648-32.69632-72.64768-72.64768-72.64768-4.84352 0-10.90048 1.20832-15.744 1.20832l-20.5824-61.75232c-0.00512-20.57728-15.74912-36.32128-36.3264-36.32128z" p-id="75174"></path><path d="M652.45696 775.9616c-36.3264 0-87.17312-7.26528-130.7648-42.37312-54.49216-43.5968-83.54816-116.24448-83.54816-216.73984 0-20.58752 15.73888-36.3264 36.3264-36.3264s36.3264 15.744 36.3264 36.3264c0 76.27776 18.16064 129.5616 55.69536 158.6176 48.4352 38.74304 117.4528 24.21248 117.4528 23.00416 19.37408-4.84352 38.74304 7.26528 43.59168 26.63936 4.8384 19.36896-7.26528 38.73792-26.63936 43.58656-1.21856 3.6352-20.59264 7.26528-48.44032 7.26528z" p-id="75175"></path></svg>